<svg width="60" height="60" viewBox="0 0 60 60" fill="none" xmlns="http://www.w3.org/2000/svg">
<mask id="mask0_9_44" style="mask-type:alpha" maskUnits="userSpaceOnUse" x="0" y="0" width="60" height="60">
<rect width="60" height="60" fill="#D9D9D9"/>
</mask>
<g mask="url(#mask0_9_44)">
<path d="M4.99976 60V50H54.9998V60H4.99976ZM14.9998 40H18.4998L37.9998 20.5625L34.4373 17L14.9998 36.5V40ZM9.99976 45V34.375L37.9998 6.4375C38.4581 5.97917 38.9893 5.625 39.5935 5.375C40.1977 5.125 40.8331 5 41.4998 5C42.1664 5 42.8123 5.125 43.4373 5.375C44.0623 5.625 44.6248 6 45.1248 6.5L48.5623 10C49.0623 10.4583 49.4268 11 49.656 11.625C49.8852 12.25 49.9998 12.8958 49.9998 13.5625C49.9998 14.1875 49.8852 14.8021 49.656 15.4062C49.4268 16.0104 49.0623 16.5625 48.5623 17.0625L20.6248 45H9.99976Z" fill="#1C1B1F"/>
</g>
</svg>
