<svg width="65" height="65" viewBox="0 0 65 65" fill="none" xmlns="http://www.w3.org/2000/svg">
<mask id="mask0_9_47" style="mask-type:alpha" maskUnits="userSpaceOnUse" x="0" y="0" width="65" height="65">
<rect width="65" height="65" fill="#D9D9D9"/>
</mask>
<g mask="url(#mask0_9_47)">
<path d="M18.9584 56.875C17.4688 56.875 16.1936 56.3446 15.1329 55.2839C14.0721 54.2231 13.5417 52.9479 13.5417 51.4583V16.25H10.8334V10.8333H24.375V8.125H40.625V10.8333H54.1667V16.25H51.4584V51.4583C51.4584 52.9479 50.928 54.2231 49.8672 55.2839C48.8065 56.3446 47.5313 56.875 46.0417 56.875H18.9584ZM46.0417 16.25H18.9584V51.4583H46.0417V16.25ZM24.375 46.0417H29.7917V21.6667H24.375V46.0417ZM35.2084 46.0417H40.625V21.6667H35.2084V46.0417Z" fill="#1C1B1F"/>
</g>
</svg>
