<svg width="50" height="50" viewBox="0 0 50 50" fill="none" xmlns="http://www.w3.org/2000/svg">
<mask id="mask0_9_94" style="mask-type:alpha" maskUnits="userSpaceOnUse" x="0" y="0" width="50" height="50">
<rect width="50" height="50" fill="#D9D9D9"/>
</mask>
<g mask="url(#mask0_9_94)">
<path d="M25 24.9999C22.7084 24.9999 20.7466 24.1839 19.1146 22.552C17.4827 20.9201 16.6667 18.9583 16.6667 16.6666C16.6667 14.3749 17.4827 12.4131 19.1146 10.7812C20.7466 9.14922 22.7084 8.33325 25 8.33325C27.2917 8.33325 29.2535 9.14922 30.8855 10.7812C32.5174 12.4131 33.3334 14.3749 33.3334 16.6666C33.3334 18.9583 32.5174 20.9201 30.8855 22.552C29.2535 24.1839 27.2917 24.9999 25 24.9999ZM8.33337 41.6666V35.8333C8.33337 34.6527 8.63719 33.5676 9.24483 32.578C9.85247 31.5885 10.6598 30.8333 11.6667 30.3124C13.8195 29.236 16.007 28.4287 18.2292 27.8905C20.4514 27.3523 22.7084 27.0833 25 27.0833C27.2917 27.0833 29.5487 27.3523 31.7709 27.8905C33.9931 28.4287 36.1806 29.236 38.3334 30.3124C39.3403 30.8333 40.1476 31.5885 40.7552 32.578C41.3629 33.5676 41.6667 34.6527 41.6667 35.8333V41.6666H8.33337Z" fill="#F49A24"/>
</g>
</svg>
