<svg width="150" height="150" viewBox="0 0 150 150" fill="none" xmlns="http://www.w3.org/2000/svg">
<mask id="mask0_5_200" style="mask-type:alpha" maskUnits="userSpaceOnUse" x="0" y="0" width="150" height="150">
<rect width="150" height="150" fill="#D9D9D9"/>
</mask>
<g mask="url(#mask0_5_200)">
<path d="M75 109.375C82.8125 109.375 89.4531 106.641 94.9219 101.172C100.391 95.7031 103.125 89.0625 103.125 81.25C103.125 73.4375 100.391 66.7969 94.9219 61.3281C89.4531 55.8594 82.8125 53.125 75 53.125C67.1875 53.125 60.5469 55.8594 55.0781 61.3281C49.6094 66.7969 46.875 73.4375 46.875 81.25C46.875 89.0625 49.6094 95.7031 55.0781 101.172C60.5469 106.641 67.1875 109.375 75 109.375ZM75 96.875C70.625 96.875 66.9271 95.3646 63.9063 92.3438C60.8854 89.3229 59.375 85.625 59.375 81.25C59.375 76.875 60.8854 73.1771 63.9063 70.1563C66.9271 67.1354 70.625 65.625 75 65.625C79.375 65.625 83.0729 67.1354 86.0938 70.1563C89.1146 73.1771 90.625 76.875 90.625 81.25C90.625 85.625 89.1146 89.3229 86.0938 92.3438C83.0729 95.3646 79.375 96.875 75 96.875ZM25 131.25C21.5625 131.25 18.6198 130.026 16.1719 127.578C13.724 125.13 12.5 122.188 12.5 118.75V43.75C12.5 40.3125 13.724 37.3698 16.1719 34.9219C18.6198 32.474 21.5625 31.25 25 31.25H44.6875L56.25 18.75H93.75L105.312 31.25H125C128.438 31.25 131.38 32.474 133.828 34.9219C136.276 37.3698 137.5 40.3125 137.5 43.75V118.75C137.5 122.188 136.276 125.13 133.828 127.578C131.38 130.026 128.438 131.25 125 131.25H25Z" fill="#1C1B1F"/>
</g>
</svg>
